<?xml version="1.0" encoding="utf-8"?>
<!-- Generator: Adobe Illustrator 24.1.2, SVG Export Plug-In . SVG Version: 6.00 Build 0)  -->
<!DOCTYPE svg PUBLIC "-//W3C//DTD SVG 1.0//EN" "http://www.w3.org/TR/2001/REC-SVG-20010904/DTD/svg10.dtd" [
	<!ENTITY ns_extend "http://ns.adobe.com/Extensibility/1.0/">
	<!ENTITY ns_ai "http://ns.adobe.com/AdobeIllustrator/10.0/">
	<!ENTITY ns_graphs "http://ns.adobe.com/Graphs/1.0/">
	<!ENTITY ns_vars "http://ns.adobe.com/Variables/1.0/">
	<!ENTITY ns_imrep "http://ns.adobe.com/ImageReplacement/1.0/">
	<!ENTITY ns_sfw "http://ns.adobe.com/SaveForWeb/1.0/">
	<!ENTITY ns_custom "http://ns.adobe.com/GenericCustomNamespace/1.0/">
	<!ENTITY ns_adobe_xpath "http://ns.adobe.com/XPath/1.0/">
]>
<svg version="1.0" id="Lag_1"
	 xmlns="http://www.w3.org/2000/svg" xmlns:xlink="http://www.w3.org/1999/xlink" x="0px" y="0px" viewBox="0 0 1000 1000"
	 style="enable-background:new 0 0 1000 1000;" xml:space="preserve">
<style type="text/css">
	.st0{fill:none;stroke:#0045FF;stroke-width:37.066;stroke-linecap:round;stroke-linejoin:round;stroke-miterlimit:10;}
	.st1{fill:none;stroke:#0045FF;stroke-width:36.4946;stroke-linecap:round;stroke-linejoin:round;}
</style>
<g id="Layer_1">
	<g>
		<polyline class="st0" points="758.4,524.2 761.5,962.8 77.7,962.8 77.7,60.2 710.9,59.7 		"/>
		<ellipse class="st0" cx="655.7" cy="318" rx="83.4" ry="83.4"/>
		<line class="st0" x1="641.1" y1="278.9" x2="607.7" y2="186.2"/>
		<line class="st0" x1="617" y1="332.7" x2="524.3" y2="366"/>
		<line class="st0" x1="670.7" y1="358.6" x2="704.1" y2="451.3"/>
		<line class="st0" x1="696.7" y1="303" x2="789.3" y2="269.6"/>
		<polygon class="st0" points="921,472.3 757.9,524.1 748.5,527.4 598.4,576 540.2,596.2 511.8,508.1 422.9,239.8 399.6,162.9 
			699.7,64 711,60.7 780.4,39 		"/>
		<line class="st0" x1="272.3" y1="862.7" x2="566.9" y2="862.7"/>
	</g>
</g>
<path class="st1" d="M368.9,649c-91.2,27.4-91.2-45.6-127.7-54.7"/>
<path class="st1" d="M450,339.6c-26.3-3-53,2.8-79.6,7.4c-2.3,0-5.8-1.2-8.1-2.3c-19.7-11.6-38.2-24.3-61.4-24.3
	c-6.9,4.6-9.3,13.9-10.4,22c-1.2,16.2,0,31.3,5.8,46.3c-30.1,31.3-33.6,77.6-22,118.1c3.5,11.6,8.1,22,15.1,32.4
	c8.1,11.6,18.5,19.7,30.1,27.8c16.2,9.3,32.4,13.9,51,17.4c5.8,0,10.4,2.3,15.7,1.6c-1.4,1.5-3.3,3.9-5.2,4.5
	c0.6-1.9,3.2-4.4,5.2-4.5c-8.8,8.8-15.7,21.6-16.9,34.3c-1.2,27.8,0,55.6-0.3,83.4"/>
<path class="st1" d="M496.7,703.7c0-17.3,0.4-34.6,0.5-51.8c0-15.5,1.5-32.5-4.4-47.2c-2.9-7.3-7.4-13.9-13.2-19.2
	c1.4-0.2,15.6-1.2,13,3.4c-2.6,4.5-11.1-1.5-13-3.4c16.6-1.2,33.3-4.3,48.9-10.3"/>
</svg>
